# xmcd
#
# Track frame offsets: 
#        150
#        13062
#        20888
#        35586
#        47771
#        58159
#        66908
#        80747
#        94743
#        111336
#        119869
#        127994
#        141927
#        153575
#        166713
#        179664
#        191781
#        203212
#
# Disc length: 2866 seconds
#
# Revision: 0
# Processed by: cddbd v1.5.2PL0 Copyright (c) Steve Scherf et al.
# Submitted via: ExactAudioCopy v0.99pb4
#
DISCID=150b3012
DTITLE=Katastroof - Loezers
DYEAR=2014
DGENRE=Folk
TTITLE0=Nen Ouwe Velo
TTITLE1=Tinternet
TTITLE2=Ouwe Zak
TTITLE3=Ik Zen Zo Lui
TTITLE4=De Boebies Van De Barmeid
TTITLE5=Die Gast Met Zijn Gitaar
TTITLE6=Ixenhopulos
TTITLE7=Achter Glas
TTITLE8=Makkis
TTITLE9='t Goei Voorbeeld
TTITLE10=Zuigplak
TTITLE11=Bierkaai
TTITLE12=Kjienekjie Were
TTITLE13=Kindere
TTITLE14=Zie Mij Hier Staan (Een Allegorie)
TTITLE15=Vremd Goan
TTITLE16=Kakmadam
TTITLE17=Finale
EXTD=
EXTT0=
EXTT1=
EXTT2=
EXTT3=
EXTT4=
EXTT5=
EXTT6=
EXTT7=
EXTT8=
EXTT9=
EXTT10=
EXTT11=
EXTT12=
EXTT13=
EXTT14=
EXTT15=
EXTT16=
EXTT17=
PLAYORDER=
